<svg width="61" height="10" viewBox="0 0 61 10" fill="none" xmlns="http://www.w3.org/2000/svg">
<path d="M4.44336 9.12C3.70736 9.12 3.07936 8.992 2.55936 8.736C2.04736 8.48 1.64736 8.112 1.35936 7.632C1.07936 7.144 0.927359 6.564 0.903359 5.892C0.895359 5.548 0.891359 5.18 0.891359 4.788C0.891359 4.388 0.895359 4.012 0.903359 3.66C0.927359 2.996 1.07936 2.428 1.35936 1.956C1.64736 1.484 2.05136 1.12 2.57136 0.864C3.09936 0.608 3.72336 0.48 4.44336 0.48C5.02736 0.48 5.53936 0.559999 5.97936 0.719999C6.41936 0.872 6.78336 1.072 7.07136 1.32C7.36736 1.56 7.58736 1.82 7.73136 2.1C7.88336 2.38 7.96336 2.64 7.97136 2.88C7.97936 2.952 7.95936 3.012 7.91136 3.06C7.86336 3.108 7.79936 3.132 7.71936 3.132H6.48336C6.40336 3.132 6.34336 3.116 6.30336 3.084C6.26336 3.052 6.22736 3.004 6.19536 2.94C6.13136 2.772 6.03136 2.608 5.89536 2.448C5.75936 2.28 5.57536 2.14 5.34336 2.028C5.11136 1.916 4.81136 1.86 4.44336 1.86C3.89936 1.86 3.46336 2.004 3.13536 2.292C2.81536 2.58 2.64336 3.056 2.61936 3.72C2.59536 4.416 2.59536 5.12 2.61936 5.832C2.64336 6.512 2.81936 7 3.14736 7.296C3.48336 7.592 3.92336 7.74 4.46736 7.74C4.82736 7.74 5.14736 7.676 5.42736 7.548C5.71536 7.42 5.93936 7.22 6.09936 6.948C6.26736 6.676 6.35136 6.328 6.35136 5.904V5.532H4.88736C4.80736 5.532 4.73936 5.504 4.68336 5.448C4.62736 5.392 4.59936 5.32 4.59936 5.232V4.596C4.59936 4.508 4.62736 4.436 4.68336 4.38C4.73936 4.324 4.80736 4.296 4.88736 4.296H7.75536C7.84336 4.296 7.91136 4.324 7.95936 4.38C8.01536 4.436 8.04336 4.508 8.04336 4.596V5.856C8.04336 6.528 7.89536 7.108 7.59936 7.596C7.31136 8.084 6.89536 8.46 6.35136 8.724C5.81536 8.988 5.17936 9.12 4.44336 9.12ZM11.2697 9C11.1897 9 11.1217 8.972 11.0657 8.916C11.0097 8.86 10.9817 8.792 10.9817 8.712V0.9C10.9817 0.812 11.0097 0.74 11.0657 0.684C11.1217 0.628 11.1897 0.599999 11.2697 0.599999H16.5497C16.6377 0.599999 16.7097 0.628 16.7657 0.684C16.8217 0.74 16.8497 0.812 16.8497 0.9V1.692C16.8497 1.772 16.8217 1.84 16.7657 1.896C16.7097 1.952 16.6377 1.98 16.5497 1.98H12.6017V4.104H16.2857C16.3737 4.104 16.4457 4.132 16.5017 4.188C16.5577 4.236 16.5857 4.304 16.5857 4.392V5.136C16.5857 5.224 16.5577 5.296 16.5017 5.352C16.4457 5.4 16.3737 5.424 16.2857 5.424H12.6017V7.62H16.6457C16.7337 7.62 16.8057 7.648 16.8617 7.704C16.9177 7.76 16.9457 7.832 16.9457 7.92V8.712C16.9457 8.792 16.9177 8.86 16.8617 8.916C16.8057 8.972 16.7337 9 16.6457 9H11.2697ZM21.9825 9C21.9025 9 21.8345 8.972 21.7785 8.916C21.7225 8.86 21.6945 8.792 21.6945 8.712V2.076H19.4745C19.3945 2.076 19.3265 2.048 19.2705 1.992C19.2145 1.936 19.1865 1.868 19.1865 1.788V0.9C19.1865 0.812 19.2145 0.74 19.2705 0.684C19.3265 0.628 19.3945 0.599999 19.4745 0.599999H25.5945C25.6825 0.599999 25.7545 0.628 25.8105 0.684C25.8665 0.74 25.8945 0.812 25.8945 0.9V1.788C25.8945 1.868 25.8665 1.936 25.8105 1.992C25.7545 2.048 25.6825 2.076 25.5945 2.076H23.3865V8.712C23.3865 8.792 23.3585 8.86 23.3025 8.916C23.2465 8.972 23.1745 9 23.0865 9H21.9825ZM32.6494 9C32.5694 9 32.5014 8.972 32.4454 8.916C32.3894 8.86 32.3614 8.792 32.3614 8.712V0.9C32.3614 0.812 32.3894 0.74 32.4454 0.684C32.5014 0.628 32.5694 0.599999 32.6494 0.599999H33.5734C33.6854 0.599999 33.7654 0.628 33.8134 0.684C33.8694 0.732 33.9054 0.768 33.9214 0.792L37.3774 6.168V0.9C37.3774 0.812 37.4014 0.74 37.4494 0.684C37.5054 0.628 37.5774 0.599999 37.6654 0.599999H38.6734C38.7614 0.599999 38.8334 0.628 38.8894 0.684C38.9454 0.74 38.9734 0.812 38.9734 0.9V8.7C38.9734 8.788 38.9454 8.86 38.8894 8.916C38.8334 8.972 38.7654 9 38.6854 9H37.7494C37.6374 9 37.5574 8.972 37.5094 8.916C37.4614 8.86 37.4254 8.824 37.4014 8.808L33.9574 3.552V8.712C33.9574 8.792 33.9294 8.86 33.8734 8.916C33.8174 8.972 33.7454 9 33.6574 9H32.6494ZM45.4738 9.12C44.7618 9.12 44.1498 9.004 43.6378 8.772C43.1258 8.532 42.7258 8.168 42.4378 7.68C42.1498 7.184 41.9938 6.568 41.9698 5.832C41.9618 5.488 41.9578 5.148 41.9578 4.812C41.9578 4.476 41.9618 4.132 41.9698 3.78C41.9938 3.052 42.1538 2.444 42.4498 1.956C42.7458 1.468 43.1498 1.1 43.6618 0.852C44.1818 0.604 44.7858 0.48 45.4738 0.48C46.1618 0.48 46.7658 0.604 47.2858 0.852C47.8058 1.1 48.2138 1.468 48.5098 1.956C48.8058 2.444 48.9658 3.052 48.9898 3.78C49.0058 4.132 49.0138 4.476 49.0138 4.812C49.0138 5.148 49.0058 5.488 48.9898 5.832C48.9658 6.568 48.8098 7.184 48.5218 7.68C48.2338 8.168 47.8298 8.532 47.3098 8.772C46.7978 9.004 46.1858 9.12 45.4738 9.12ZM45.4738 7.74C45.9938 7.74 46.4178 7.588 46.7458 7.284C47.0738 6.972 47.2498 6.468 47.2738 5.772C47.2898 5.42 47.2978 5.096 47.2978 4.8C47.2978 4.496 47.2898 4.172 47.2738 3.828C47.2578 3.364 47.1698 2.988 47.0098 2.7C46.8578 2.404 46.6498 2.192 46.3858 2.064C46.1218 1.928 45.8178 1.86 45.4738 1.86C45.1378 1.86 44.8378 1.928 44.5738 2.064C44.3098 2.192 44.0978 2.404 43.9378 2.7C43.7858 2.988 43.7018 3.364 43.6858 3.828C43.6778 4.172 43.6738 4.496 43.6738 4.8C43.6738 5.096 43.6778 5.42 43.6858 5.772C43.7098 6.468 43.8858 6.972 44.2138 7.284C44.5418 7.588 44.9618 7.74 45.4738 7.74ZM53.2758 9C53.1558 9 53.0598 8.968 52.9878 8.904C52.9238 8.832 52.8798 8.744 52.8558 8.64L51.4278 0.948C51.4278 0.924 51.4238 0.904 51.4158 0.887999C51.4158 0.872 51.4158 0.86 51.4158 0.852C51.4158 0.78 51.4398 0.72 51.4878 0.672C51.5438 0.624 51.6038 0.599999 51.6678 0.599999H52.7238C52.9238 0.599999 53.0358 0.68 53.0598 0.84L54.0558 6.276L55.1358 2.76C55.1598 2.696 55.1998 2.632 55.2558 2.568C55.3198 2.496 55.4118 2.46 55.5318 2.46H56.1798C56.3078 2.46 56.3998 2.496 56.4558 2.568C56.5118 2.632 56.5478 2.696 56.5638 2.76L57.6558 6.264L58.6518 0.84C58.6758 0.68 58.7878 0.599999 58.9878 0.599999H60.0438C60.1078 0.599999 60.1638 0.624 60.2118 0.672C60.2598 0.72 60.2838 0.78 60.2838 0.852C60.2838 0.86 60.2838 0.872 60.2838 0.887999C60.2838 0.904 60.2798 0.924 60.2718 0.948L58.8438 8.64C58.8278 8.744 58.7838 8.832 58.7118 8.904C58.6398 8.968 58.5438 9 58.4238 9H57.6198C57.4998 9 57.4038 8.968 57.3318 8.904C57.2678 8.84 57.2238 8.772 57.1998 8.7L55.8558 4.692L54.5118 8.7C54.4798 8.772 54.4318 8.84 54.3678 8.904C54.3038 8.968 54.2078 9 54.0798 9H53.2758Z" fill="white"/>
</svg>
